<?xml version="1.0" encoding="utf-8"?>
<!-- Generator: Adobe Illustrator 16.0.0, SVG Export Plug-In . SVG Version: 6.00 Build 0)  -->
<!DOCTYPE svg PUBLIC "-//W3C//DTD SVG 1.1//EN" "http://www.w3.org/Graphics/SVG/1.1/DTD/svg11.dtd">
<svg version="1.1" id="Layer_1" xmlns="http://www.w3.org/2000/svg" xmlns:xlink="http://www.w3.org/1999/xlink" x="0px" y="0px"
	 width="520.374px" height="37.827px" viewBox="0 0 520.374 37.827" enable-background="new 0 0 520.374 37.827"
	 xml:space="preserve">
<g>
	<path fill="#FFCC00" d="M3.283,4.824c0-1.27-0.297-1.866-1.27-1.866H0.297C0.075,2.958,0,2.882,0,2.622V1.762
		c0-0.222,0.075-0.296,0.372-0.296c0.373,0,2.162,0.109,5.745,0.109c3.131,0,4.923-0.109,5.374-0.109
		c0.223,0,0.296,0.074,0.296,0.26V2.66c0,0.223-0.073,0.298-0.296,0.298H9.922c-1.122,0-1.79,0.669-1.83,1.454
		C8.058,4.861,7.981,7.098,7.981,9.26v4.628c0,1.865,0.035,4.51,0.111,5.702c0.116,1.72,0.412,3.438,1.306,4.628
		c1.269,1.717,3.285,2.313,5.074,2.313c1.718,0,3.805-0.671,4.998-1.79c1.418-1.419,2.165-3.58,2.165-6.305v-6.715
		c0-2.98-0.299-6.267-0.411-7.122c-0.112-0.974-0.708-1.643-1.53-1.643h-1.342c-0.225,0-0.297-0.111-0.297-0.262V1.762
		c0-0.222,0.073-0.296,0.297-0.296c0.373,0,2.088,0.109,4.551,0.109c2.311,0,3.505-0.109,3.802-0.109
		c0.336,0,0.375,0.109,0.375,0.296v0.859c0,0.225-0.039,0.336-0.226,0.336h-1.341c-1.342,0-1.496,1.044-1.569,1.454
		c-0.073,0.449-0.073,5.669-0.073,6.151c0,0.524-0.073,7.016-0.222,8.508c-0.227,3.06-1.12,5.373-3.134,7.162
		c-1.568,1.415-3.953,2.314-6.793,2.314c-1.788,0-3.951-0.296-5.368-0.899c-2.161-0.893-3.655-2.607-4.404-4.996
		c-0.521-1.641-0.668-4.101-0.668-8.987V4.824z"/>
	<path fill="#FFCC00" d="M28.128,19.667c0.145,0,0.219,0.075,0.219,0.3c0.076,1.192,0.374,2.613,1.419,4.252
		c1.118,1.791,3.059,2.682,4.924,2.682c2.014,0,4.85-1.262,4.85-4.359c0-3.433-1.569-4.55-5.521-6.042
		c-1.193-0.448-3.654-1.492-5.449-3.135c-1.265-1.192-1.863-3.057-1.863-5.336c0-2.087,0.821-3.8,2.612-5.22
		c1.492-1.268,3.134-1.789,5.296-1.789c2.463,0,3.953,0.595,4.697,0.894c0.376,0.149,0.599,0.078,0.787-0.112l0.484-0.483
		c0.149-0.151,0.299-0.224,0.52-0.224c0.228,0,0.299,0.224,0.299,0.596C41.402,2.285,42,7.506,42,7.881
		c0,0.146-0.071,0.224-0.222,0.264l-0.6,0.185c-0.147,0.034-0.296,0-0.371-0.225c-0.373-1.044-0.969-2.538-2.313-3.952
		c-0.97-1.044-2.164-1.568-3.879-1.568c-2.982,0-4.178,2.388-4.178,3.768c0,1.269,0.151,2.39,1.046,3.358
		c0.97,0.968,3.058,1.864,4.55,2.312c2.164,0.67,3.954,1.417,5.369,2.909c1.196,1.267,1.867,2.835,1.867,5.333
		c0,4.551-2.983,8.283-7.907,8.283c-3.06,0-4.85-0.674-6.34-1.794c-0.452-0.296-0.675-0.447-0.894-0.447
		c-0.226,0-0.375,0.3-0.6,0.673c-0.223,0.373-0.373,0.447-0.671,0.447c-0.298,0-0.446-0.224-0.446-0.603
		c0.073-0.442,0.597-6.484,0.669-6.935c0.038-0.223,0.076-0.299,0.226-0.299L28.128,19.667z"/>
	<path fill="#FFCC00" d="M68.784,21.904c0.109,0.114,0.147,0.227,0.072,0.375c-2.237,3.208-5.816,6.269-11.114,6.269
		c-4.771,0-7.46-1.421-9.771-3.507c-2.763-2.463-4.03-6.788-4.03-10.073c0-3.654,1.194-7.161,3.803-9.995
		c2.016-2.164,5.227-3.953,9.701-3.953c3.431,0,6.19,1.043,7.533,1.789c0.525,0.301,0.673,0.301,0.745,0l0.301-0.972
		c0.073-0.223,0.147-0.223,0.596-0.223c0.447,0,0.524,0.075,0.524,0.6c0,0.669,0.744,6.635,0.894,7.756
		c0.038,0.225,0,0.338-0.15,0.376l-0.706,0.218c-0.188,0.077-0.3-0.069-0.412-0.369c-0.447-1.346-1.343-3.207-2.91-4.851
		c-1.641-1.565-3.58-2.759-6.489-2.759c-5.969,0-8.431,5.369-8.431,10.742c0,2.313,0.672,6.715,3.432,9.698
		c2.465,2.611,4.627,2.91,6.418,2.91c4.102,0,7.347-2.051,8.913-4.325c0.186-0.263,0.335-0.37,0.449-0.263L68.784,21.904z"/>
</g>
<g>
	<path fill="#FFFFFF" d="M78.708,12.101c0-0.894-0.112-7.596-0.149-8.154c-0.074-0.894-0.447-1.266-1.861-1.266h-2.16
		c-0.186,0-0.298-0.074-0.298-0.224V1.452c0-0.149,0.112-0.224,0.261-0.224c0.447,0,2.345,0.112,5.808,0.112
		c3.313,0,4.505-0.112,5.026-0.112c0.186,0,0.26,0.112,0.26,0.261V2.42c0,0.187-0.112,0.261-0.298,0.261h-1.75
		c-0.745,0-1.303,0.298-1.303,1.043c0,0.372-0.112,8.6-0.112,9.047v2.867c0,0.372,0.112,8.973,0.112,9.382
		c0,1.154,0.558,1.341,1.75,1.341h1.527c0.186,0,0.298,0.074,0.298,0.26v0.969c0,0.148-0.112,0.223-0.335,0.223
		c-0.446,0-1.936-0.111-5.175-0.111c-3.537,0-5.138,0.111-5.548,0.111c-0.186,0-0.298-0.074-0.298-0.223v-1.006
		c0-0.148,0.112-0.223,0.298-0.223h2.085c0.745,0,1.527-0.112,1.676-1.08c0.074-0.559,0.186-8.601,0.186-10.574V12.101z"/>
	<path fill="#FFFFFF" d="M102.123,25.689c0,0.596,0.335,0.782,0.819,0.782h1.191c0.335,0,0.409,0.111,0.409,0.335v0.596
		c0,0.261-0.074,0.409-0.298,0.409c-0.261,0-1.415-0.111-3.537-0.111c-1.898,0-3.09,0.111-3.351,0.111
		c-0.224,0-0.298-0.111-0.298-0.409v-0.596c0-0.261,0.112-0.335,0.484-0.335h1.08c0.41,0,0.708-0.187,0.745-0.856
		c0.037-0.968,0.074-2.159,0.074-3.128v-4.914c0-1.489,0-2.569-1.08-3.351c-0.894-0.671-1.787-0.671-2.718-0.671
		c-0.596,0-1.898,0.261-3.016,1.452c-0.745,0.819-0.856,1.825-0.856,2.532v7.707c0,1.005,0.112,1.229,0.894,1.229h0.931
		c0.298,0,0.372,0.111,0.372,0.372v0.633c0,0.224-0.074,0.335-0.26,0.335c-0.261,0-1.266-0.111-3.239-0.111
		c-1.899,0-3.09,0.111-3.313,0.111c-0.187,0-0.261-0.111-0.261-0.335v-0.67c0-0.224,0.074-0.335,0.372-0.335h1.08
		c0.484,0,0.744-0.111,0.744-0.745v-8.712c0-1.117-0.596-1.75-1.526-2.196l-0.298-0.149c-0.261-0.111-0.298-0.223-0.298-0.335
		v-0.187c0-0.186,0.149-0.297,0.335-0.372l3.202-1.787c0.298-0.148,0.521-0.261,0.67-0.261c0.187,0,0.261,0.149,0.298,0.447
		l0.261,2.271h0.075c1.08-1.341,3.239-2.719,5.101-2.719c1.117,0,2.271,0.224,3.165,0.819c1.117,0.745,2.048,2.606,2.048,3.537
		V25.689z"/>
	<path fill="#FFFFFF" d="M108.341,13.962h-2.569c-0.186,0-0.26-0.074-0.186-0.41l0.149-1.116c0.037-0.224,0.149-0.261,0.447-0.261
		h2.16v-0.707c0-3.687,1.042-6.106,2.494-7.744c1.974-2.16,4.021-2.941,6.106-2.941c1.75,0,3.388,0.67,3.388,2.085
		c0,0.894-0.968,1.601-1.563,1.601c-0.373,0-0.745-0.074-1.042-0.224c-0.335-0.186-0.745-0.67-0.894-0.856
		c-0.484-0.596-1.005-0.855-1.713-0.855c-0.968,0-1.973,0.26-2.792,1.303c-1.377,1.75-1.303,4.989-1.303,7.595v0.745h4.505
		c0.261,0,0.298,0.224,0.261,0.372l-0.187,1.229c-0.037,0.149-0.186,0.187-0.484,0.187h-4.095v3.313c0,4.394,0,7.818,0.037,8.229
		c0.074,0.633,0.186,0.968,0.968,0.968h2.123c0.335,0,0.41,0.074,0.41,0.298v0.596c0,0.298-0.075,0.446-0.261,0.446
		c-0.224,0-1.601-0.111-4.468-0.111c-2.048,0-3.947,0.111-4.245,0.111c-0.223,0-0.298-0.074-0.298-0.26v-0.819
		c0-0.187,0.075-0.261,0.373-0.261h1.787c0.707,0,0.856-0.447,0.894-1.303v-7V13.962z"/>
	<path fill="#FFFFFF" d="M117.192,25.578c-1.712-2.048-2.047-3.426-2.047-6.069c0-1.898,1.005-4.281,3.202-5.994
		c1.936-1.489,3.761-1.787,4.989-1.787c2.048,0,4.095,1.043,5.212,2.16c1.675,1.712,2.532,3.648,2.532,6.068
		c0,4.059-3.649,8.191-8.229,8.191C121.064,28.147,118.756,27.439,117.192,25.578z M127.953,19.584c0-4.133-3.016-6.739-4.915-6.739
		c-1.005,0-1.974,0.224-2.867,1.191c-1.452,1.489-1.973,3.016-1.973,5.846c0,2.085,0.224,3.5,1.415,5.212
		c0.856,1.229,1.936,1.937,3.686,1.937C126.128,27.03,127.953,23.567,127.953,19.584z"/>
	<path fill="#FFFFFF" d="M134.088,17.797c0-1.899-0.298-2.271-1.34-2.83l-0.708-0.372c-0.223-0.074-0.298-0.111-0.298-0.261V14.11
		c0-0.148,0.075-0.223,0.298-0.335l3.686-1.898c0.224-0.112,0.373-0.149,0.521-0.149c0.223,0,0.26,0.224,0.26,0.447l0.187,2.568
		h0.149c1.117-1.712,2.867-3.238,4.468-3.238c1.266,0,1.899,0.781,1.899,1.638c0,1.08-0.894,1.824-1.564,1.824
		c-0.41,0-0.782-0.148-1.08-0.298c-0.298-0.186-0.745-0.298-1.229-0.298c-0.596,0-1.564,0.372-2.197,1.563
		c-0.224,0.41-0.373,1.08-0.373,1.191v7.819c0,1.154,0.261,1.526,1.042,1.526h1.75c0.223,0,0.261,0.111,0.261,0.335v0.67
		c0,0.224-0.038,0.335-0.186,0.335c-0.224,0-1.937-0.111-3.947-0.111c-2.308,0-3.872,0.111-4.095,0.111
		c-0.149,0-0.224-0.074-0.224-0.372v-0.633c0-0.261,0.074-0.335,0.41-0.335h1.452c0.559,0,0.819-0.224,0.819-0.707
		c0.037-1.229,0.037-2.532,0.037-4.469V17.797z"/>
	<path fill="#FFFFFF" d="M156.245,18.169c0-2.755-0.521-3.463-1.117-4.021c-0.484-0.446-1.564-0.67-2.383-0.67
		c-0.968,0-2.532,0.484-3.574,2.16c-0.447,0.744-0.521,1.451-0.521,2.494v7.372c0,0.596,0.223,0.968,0.744,0.968h1.341
		c0.335,0,0.372,0.074,0.372,0.335v0.596c0,0.261-0.037,0.409-0.298,0.409c-0.335,0-1.34-0.111-3.388-0.111
		c-1.973,0-3.165,0.111-3.462,0.111c-0.224,0-0.298-0.074-0.298-0.335v-0.67c0-0.298,0.074-0.335,0.447-0.335h1.266
		c0.335,0,0.521-0.224,0.558-0.931c0.038-0.633,0.038-1.304,0.038-1.937v-6.627c0-0.744-0.149-1.415-1.043-1.898l-0.782-0.41
		c-0.186-0.111-0.26-0.186-0.26-0.298v-0.298c0-0.111,0.148-0.261,0.223-0.298l3.276-1.675c0.298-0.149,0.559-0.224,0.708-0.224
		c0.223,0,0.335,0.261,0.335,0.521l0.149,2.159h0.112c1.117-1.526,3.313-2.83,5.473-2.83c1.937,0,3.426,1.117,4.208,2.867h0.186
		c1.117-1.452,3.239-2.867,5.473-2.867c1.303,0,2.457,0.224,3.351,1.117c0.856,0.894,1.787,1.713,1.787,4.58v8.302
		c0,0.559,0.335,0.745,0.782,0.745h1.005c0.335,0,0.41,0.074,0.41,0.335v0.633c0,0.261-0.074,0.372-0.261,0.372
		c-0.261,0-1.303-0.111-3.09-0.111c-1.862,0-3.202,0.111-3.463,0.111c-0.223,0-0.298-0.111-0.298-0.372v-0.633
		c0-0.261,0.075-0.335,0.484-0.335h0.931c0.409,0,0.707-0.187,0.745-0.707c0.074-0.856,0.074-2.197,0.074-3.017v-5.51
		c0-1.229-0.223-2.309-1.08-2.979c-0.67-0.521-1.638-0.782-2.755-0.782c-1.117,0-2.644,0.856-3.239,1.937
		c-0.559,1.079-0.521,2.085-0.521,3.76v6.441c0,0.484,0.187,0.856,0.745,0.856h1.266c0.335,0,0.409,0.074,0.409,0.335v0.596
		c0,0.298-0.074,0.409-0.26,0.409c-0.261,0-1.229-0.111-3.314-0.111c-2.01,0-3.276,0.111-3.5,0.111
		c-0.186,0-0.261-0.111-0.261-0.372v-0.596c0-0.298,0.038-0.372,0.373-0.372h1.08c0.596,0,0.819-0.149,0.819-0.633V18.169z"/>
	<path fill="#FFFFFF" d="M183.303,23.27c0,2.122,0.447,2.792,1.117,2.792c0.596,0,1.117-0.297,1.303-0.558
		c0.149-0.187,0.224-0.261,0.373-0.149l0.372,0.298c0.112,0.112,0.187,0.298-0.037,0.67c-0.298,0.559-1.005,1.825-2.904,1.825
		c-1.34,0-2.308-0.969-2.643-2.495h-0.075c-0.782,0.931-2.01,1.713-3.686,2.271c-0.708,0.224-1.378,0.224-2.197,0.224
		c-0.894,0-2.234-0.745-2.234-3.091c0-1.713,0.782-3.202,3.723-4.505c1.675-0.744,3.611-1.639,4.207-2.159V16.01
		c-0.075-0.633-0.112-1.602-0.521-2.085c-0.41-0.484-1.154-0.819-2.234-0.819c-0.744,0-1.898,0.298-2.42,0.782
		c-0.521,0.483-0.186,1.042-0.186,1.712c0,1.304-0.447,2.122-1.973,2.122c-0.596,0-0.894-0.335-0.894-1.191
		c0-1.191,1.042-2.605,2.569-3.499c1.564-0.931,2.867-1.304,4.542-1.304c1.75,0,2.457,0.521,2.979,1.006
		c0.782,0.781,0.819,1.638,0.819,2.644v5.696V23.27z M180.585,19.509c-1.34,1.006-4.989,1.75-4.989,4.841
		c0,1.377,0.819,2.048,1.936,2.048c1.08,0,3.053-1.304,3.053-2.309V19.509z"/>
	<path fill="#FFFFFF" d="M191.044,23.046c0,2.793,1.266,3.276,1.936,3.276c0.856,0,1.936-0.148,2.458-0.483
		c0.186-0.112,0.335-0.074,0.447,0.074l0.186,0.335c0.112,0.149,0.037,0.298-0.074,0.409c-0.373,0.373-1.899,1.49-4.133,1.49
		c-1.824,0-3.611-1.75-3.611-3.165c0-1.526,0.111-4.803,0.111-5.324v-0.819c0-0.67,0.037-3.164,0.075-4.729h-2.271
		c-0.335,0-0.559-0.148-0.559-0.446s0.223-0.409,0.67-0.67c0.894-0.521,3.761-3.426,4.245-4.691
		c0.112-0.298,0.298-0.372,0.521-0.372c0.298,0,0.373,0.26,0.373,0.559l-0.186,3.686h5.175c0.224,0,0.335,0.186,0.261,0.335
		l-0.372,1.303c-0.038,0.187-0.112,0.298-0.335,0.298h-4.803c-0.075,1.713-0.112,3.5-0.112,5.213V23.046z"/>
	<path fill="#FFFFFF" d="M199.594,16.866c0-1.267-0.224-1.937-2.085-2.234c-0.261-0.037-0.335-0.111-0.335-0.261v-0.335
		c0-0.111,0.075-0.186,0.261-0.261c1.191-0.446,2.606-1.042,4.021-1.824c0.298-0.148,0.484-0.224,0.708-0.224
		c0.186,0,0.223,0.187,0.186,0.447c-0.074,0.633-0.074,2.979-0.074,6.068v4.059c0,1.452,0,2.792,0.037,3.202
		c0.074,0.707,0.186,0.968,0.596,0.968h1.712c0.298,0,0.373,0.111,0.373,0.335v0.633c0,0.261-0.075,0.372-0.335,0.372
		c-0.298,0-2.011-0.111-3.574-0.111c-2.16,0-3.612,0.111-4.021,0.111c-0.186,0-0.298-0.074-0.298-0.298V26.77
		c0-0.224,0.112-0.298,0.373-0.298h1.824c0.41,0,0.559-0.149,0.596-0.745c0.038-1.116,0.038-2.271,0.038-3.388V16.866z
		 M197.918,5.511c0-0.932,0.782-1.937,2.271-1.937c1.303,0,1.936,1.005,1.936,1.824c0,0.968-0.67,2.048-2.159,2.048
		C199.146,7.446,197.918,6.702,197.918,5.511z"/>
	<path fill="#FFFFFF" d="M207.105,25.578c-1.713-2.048-2.048-3.426-2.048-6.069c0-1.898,1.005-4.281,3.202-5.994
		c1.936-1.489,3.76-1.787,4.989-1.787c2.047,0,4.095,1.043,5.212,2.16c1.675,1.712,2.532,3.648,2.532,6.068
		c0,4.059-3.649,8.191-8.228,8.191C210.978,28.147,208.669,27.439,207.105,25.578z M217.865,19.584c0-4.133-3.016-6.739-4.915-6.739
		c-1.005,0-1.973,0.224-2.867,1.191c-1.452,1.489-1.974,3.016-1.974,5.846c0,2.085,0.224,3.5,1.415,5.212
		c0.856,1.229,1.936,1.937,3.686,1.937C216.041,27.03,217.865,23.567,217.865,19.584z"/>
	<path fill="#FFFFFF" d="M237.006,25.689c0,0.596,0.335,0.782,0.819,0.782h1.191c0.335,0,0.409,0.111,0.409,0.335v0.596
		c0,0.261-0.074,0.409-0.298,0.409c-0.261,0-1.415-0.111-3.537-0.111c-1.898,0-3.09,0.111-3.351,0.111
		c-0.224,0-0.298-0.111-0.298-0.409v-0.596c0-0.261,0.112-0.335,0.484-0.335h1.08c0.41,0,0.708-0.187,0.745-0.856
		c0.037-0.968,0.074-2.159,0.074-3.128v-4.914c0-1.489,0-2.569-1.08-3.351c-0.894-0.671-1.787-0.671-2.718-0.671
		c-0.596,0-1.898,0.261-3.016,1.452c-0.745,0.819-0.856,1.825-0.856,2.532v7.707c0,1.005,0.112,1.229,0.894,1.229h0.931
		c0.298,0,0.372,0.111,0.372,0.372v0.633c0,0.224-0.074,0.335-0.26,0.335c-0.261,0-1.266-0.111-3.239-0.111
		c-1.899,0-3.09,0.111-3.313,0.111c-0.187,0-0.261-0.111-0.261-0.335v-0.67c0-0.224,0.074-0.335,0.372-0.335h1.08
		c0.484,0,0.744-0.111,0.744-0.745v-8.712c0-1.117-0.596-1.75-1.526-2.196l-0.298-0.149c-0.261-0.111-0.298-0.223-0.298-0.335
		v-0.187c0-0.186,0.149-0.297,0.335-0.372l3.202-1.787c0.298-0.148,0.521-0.261,0.67-0.261c0.187,0,0.261,0.149,0.298,0.447
		l0.261,2.271h0.075c1.08-1.341,3.239-2.719,5.101-2.719c1.117,0,2.271,0.224,3.165,0.819c1.117,0.745,2.048,2.606,2.048,3.537
		V25.689z"/>
	<path fill="#FFFFFF" d="M253.198,2.681h-0.932c-1.191,0-4.43,0-5.883,0.447c-1.676,0.521-2.791,3.127-3.313,4.318
		c-0.074,0.187-0.187,0.224-0.373,0.187l-0.67-0.187c-0.112-0.037-0.223-0.074-0.149-0.298c0.373-1.341,1.677-6.144,1.751-6.553
		C243.704,0.111,243.853,0,244.001,0c0.188,0,0.299,0.037,0.447,0.149l0.484,0.335c0.67,0.483,1.043,0.596,2.121,0.633
		c1.975,0.074,3.537,0.224,7.037,0.224h1.787c4.059,0,5.66-0.149,7.484-0.224c0.818-0.037,1.303-0.149,1.936-0.521l0.707-0.446
		C266.192,0.037,266.304,0,266.452,0c0.186,0,0.26,0.111,0.336,0.596c0.074,0.446,0.781,5.063,1.078,6.702
		c0.037,0.186-0.037,0.26-0.223,0.297l-0.596,0.149c-0.148,0.037-0.186,0-0.299-0.261c-0.297-0.707-1.414-3.574-2.643-4.17
		c-1.117-0.559-4.617-0.633-6.441-0.633h-1.043v10.611c0,0.521,0,10.945,0.039,11.578c0.074,0.932,0.371,1.49,1.266,1.49h2.346
		c0.334,0,0.371,0.111,0.371,0.372v0.781c0,0.187-0.037,0.298-0.371,0.298c-0.373,0-1.564-0.111-5.213-0.111
		c-3.574,0-5.139,0.111-5.66,0.111c-0.297,0-0.334-0.148-0.334-0.372v-0.707c0-0.261,0.037-0.372,0.26-0.372h2.531
		c0.746,0,1.191-0.447,1.23-0.895c0.111-1.079,0.111-12.51,0.111-13.217V2.681z"/>
	<path fill="#FFFFFF" d="M267.085,17.797c-0.074,0.335-0.111,0.931-0.111,1.787c0,3.648,2.309,6.403,5.287,6.403
		c2.27,0,3.871-1.303,4.504-2.531c0.074-0.149,0.223-0.224,0.336-0.187l0.482,0.261c0.113,0.037,0.188,0.148,0,0.559
		c-0.67,1.489-2.605,4.059-5.918,4.059c-2.123,0-4.469-0.634-5.846-2.644c-1.303-1.899-1.639-3.276-1.639-5.883
		c0-1.452,0.373-3.946,2.346-5.92c1.602-1.638,3.463-1.974,5.324-1.974c4.281,0,5.473,4.021,5.473,5.474
		c0,0.521-0.447,0.596-1.043,0.596H267.085z M273.005,16.68c0.707,0,1.004-0.187,1.004-0.521c0-0.856-0.445-3.313-2.865-3.313
		c-1.639,0-3.203,1.08-3.91,3.835H273.005z"/>
	<path fill="#FFFFFF" d="M281.64,18.69c0,2.01,0.893,4.281,1.898,5.659c1.229,1.601,2.793,1.898,4.059,1.898
		c1.861,0,2.83-0.409,4.096-1.601c0.074-0.074,0.186-0.112,0.297,0l0.373,0.372c0.148,0.149,0.186,0.261,0,0.484
		c-1.08,1.229-3.463,2.644-5.994,2.644c-1.975,0-4.059-0.447-5.771-2.606c-1.377-1.824-1.676-3.389-1.676-5.063
		c0-4.356,3.053-8.75,7.969-8.75c3.871,0,5.062,2.234,5.062,3.016c-0.037,0.856-0.596,1.304-1.377,1.304
		c-0.857,0-1.49-0.484-2.049-1.489c-0.818-1.526-1.6-1.639-2.494-1.639C283.911,12.919,281.64,14.855,281.64,18.69z"/>
	<path fill="#FFFFFF" d="M295.505,7.409c0-2.271-0.447-2.681-1.787-3.128l-0.633-0.223c-0.223-0.075-0.26-0.112-0.26-0.224V3.5
		c0-0.149,0.111-0.187,0.445-0.372l3.873-2.048c0.297-0.149,0.559-0.298,0.855-0.298c0.225,0,0.373,0.298,0.299,0.931
		s-0.111,8.19-0.111,10.052v2.383h0.186c1.303-1.563,3.463-2.42,5.1-2.42c1.564,0,2.645,0.484,3.688,1.489
		c1.674,1.564,1.6,3.463,1.6,5.474v2.122c0,2.085,0.074,4.394,0.074,5.101c0,0.447,0.596,0.559,1.379,0.559h0.633
		c0.297,0,0.408,0.074,0.408,0.335v0.559c0,0.298-0.074,0.446-0.297,0.446c-0.26,0-1.451-0.111-3.574-0.111
		c-1.824,0-3.164,0.111-3.5,0.111c-0.26,0-0.334-0.111-0.334-0.409V26.77c0-0.187,0.037-0.298,0.26-0.298h0.855
		c0.633,0,1.379-0.074,1.416-0.707c0.037-0.521,0-2.495,0-3.687v-3.016c0-2.085-0.148-3.574-1.229-4.579
		c-0.746-0.708-1.527-1.043-2.457-1.043c-1.08,0-2.42,0.372-3.463,1.563c-0.336,0.41-0.744,1.154-0.744,1.825v8.116
		c0,1.191,0.111,1.526,0.818,1.526h1.117c0.26,0,0.408,0.074,0.408,0.298v0.633c0,0.261-0.074,0.409-0.297,0.409
		c-0.299,0-1.824-0.111-3.537-0.111c-1.861,0-3.275,0.111-3.611,0.111c-0.148,0-0.26-0.111-0.26-0.372v-0.67
		c0-0.261,0.148-0.298,0.557-0.298h0.783c0.596,0,1.154-0.149,1.229-0.596c0.111-0.707,0.111-4.803,0.111-7.223V7.409z"/>
	<path fill="#FFFFFF" d="M327.46,25.689c0,0.596,0.336,0.782,0.82,0.782h1.191c0.334,0,0.408,0.111,0.408,0.335v0.596
		c0,0.261-0.074,0.409-0.297,0.409c-0.262,0-1.416-0.111-3.537-0.111c-1.898,0-3.09,0.111-3.352,0.111
		c-0.223,0-0.297-0.111-0.297-0.409v-0.596c0-0.261,0.111-0.335,0.484-0.335h1.078c0.41,0,0.709-0.187,0.746-0.856
		c0.037-0.968,0.074-2.159,0.074-3.128v-4.914c0-1.489,0-2.569-1.08-3.351c-0.895-0.671-1.787-0.671-2.719-0.671
		c-0.596,0-1.898,0.261-3.016,1.452c-0.744,0.819-0.855,1.825-0.855,2.532v7.707c0,1.005,0.111,1.229,0.893,1.229h0.932
		c0.297,0,0.373,0.111,0.373,0.372v0.633c0,0.224-0.076,0.335-0.262,0.335c-0.26,0-1.266-0.111-3.238-0.111
		c-1.9,0-3.092,0.111-3.314,0.111c-0.186,0-0.26-0.111-0.26-0.335v-0.67c0-0.224,0.074-0.335,0.371-0.335h1.08
		c0.484,0,0.744-0.111,0.744-0.745v-8.712c0-1.117-0.596-1.75-1.525-2.196l-0.299-0.149c-0.26-0.111-0.297-0.223-0.297-0.335v-0.187
		c0-0.186,0.148-0.297,0.334-0.372l3.203-1.787c0.297-0.148,0.521-0.261,0.67-0.261c0.186,0,0.26,0.149,0.297,0.447l0.262,2.271
		h0.074c1.08-1.341,3.238-2.719,5.1-2.719c1.117,0,2.271,0.224,3.166,0.819c1.117,0.745,2.047,2.606,2.047,3.537V25.689z"/>
	<path fill="#FFFFFF" d="M332.009,25.578c-1.713-2.048-2.047-3.426-2.047-6.069c0-1.898,1.006-4.281,3.201-5.994
		c1.938-1.489,3.762-1.787,4.99-1.787c2.047,0,4.096,1.043,5.211,2.16c1.676,1.712,2.533,3.648,2.533,6.068
		c0,4.059-3.648,8.191-8.229,8.191C335.882,28.147,333.573,27.439,332.009,25.578z M342.769,19.584c0-4.133-3.016-6.739-4.914-6.739
		c-1.006,0-1.973,0.224-2.867,1.191c-1.451,1.489-1.973,3.016-1.973,5.846c0,2.085,0.223,3.5,1.414,5.212
		c0.857,1.229,1.938,1.937,3.688,1.937C340.944,27.03,342.769,23.567,342.769,19.584z"/>
	<path fill="#FFFFFF" d="M351.419,16.605c0,1.936,0,7.558,0.037,8.712c0.037,0.633,0.186,1.154,0.967,1.154h1.676
		c0.336,0,0.41,0.111,0.41,0.335v0.633c0,0.224-0.074,0.372-0.223,0.372c-0.262,0-1.9-0.111-4.209-0.111
		c-2.383,0-3.871,0.111-4.207,0.111c-0.186,0-0.26-0.148-0.26-0.372v-0.633c0-0.261,0.074-0.335,0.484-0.335h1.787
		c0.408,0,0.781-0.261,0.818-0.931c0.037-1.154,0.037-7.559,0.037-9.718v-2.346c0-2.644-0.037-6.031-0.111-6.999
		c-0.074-1.267-0.67-1.862-1.861-2.234l-0.744-0.261c-0.188-0.074-0.225-0.111-0.225-0.186V3.5c0-0.112,0.111-0.187,0.336-0.261
		c1.303-0.596,2.979-1.266,4.355-2.159c0.336-0.224,0.559-0.298,0.781-0.298c0.262,0,0.336,0.186,0.299,0.67
		c-0.037,2.048-0.148,9.792-0.148,11.84V16.605z"/>
	<path fill="#FFFFFF" d="M356.233,25.578c-1.713-2.048-2.047-3.426-2.047-6.069c0-1.898,1.006-4.281,3.201-5.994
		c1.938-1.489,3.762-1.787,4.99-1.787c2.047,0,4.096,1.043,5.211,2.16c1.676,1.712,2.533,3.648,2.533,6.068
		c0,4.059-3.648,8.191-8.229,8.191C360.106,28.147,357.798,27.439,356.233,25.578z M366.993,19.584c0-4.133-3.016-6.739-4.914-6.739
		c-1.006,0-1.973,0.224-2.867,1.191c-1.451,1.489-1.973,3.016-1.973,5.846c0,2.085,0.223,3.5,1.414,5.212
		c0.857,1.229,1.938,1.937,3.688,1.937C365.169,27.03,366.993,23.567,366.993,19.584z"/>
	<path fill="#FFFFFF" d="M372.132,36.636c-1.34-0.819-1.898-1.787-1.898-3.016c0-2.085,2.123-3.686,3.91-4.468v-0.149
		c-1.564-0.335-2.496-1.489-2.496-2.605c0-1.787,2.049-3.054,3.352-3.537v-0.074c-1.451-0.634-3.463-2.346-3.463-5.66
		c0-2.42,2.16-5.398,6.367-5.398c2.83,0,4.318,1.713,4.691,2.16c1.006-0.708,2.271-1.452,3.5-1.452s1.824,0.819,1.75,1.563
		c0,0.707-0.596,1.378-1.453,1.378c-0.633,0-1.004-0.298-1.303-0.559c-0.223-0.149-0.484-0.335-0.781-0.335
		c-0.262,0-0.707,0-1.191,0.223c0.297,0.745,0.559,1.564,0.559,2.83c0,1.452-0.41,2.867-1.379,4.021
		c-0.967,1.08-3.09,1.862-4.318,1.862c-0.818,0-1.34-0.037-1.898-0.187c-0.744,0.298-1.973,1.042-1.973,2.085
		c0,1.526,1.861,1.415,4.355,1.266c3.053-0.148,4.914,0.187,6.404,1.341c1.6,1.191,1.787,2.681,1.824,3.574
		c0,1.75-0.633,3.202-2.494,4.579c-0.969,0.707-3.203,1.75-6.367,1.75C376.042,37.827,373.919,37.641,372.132,36.636z
		 M384.419,32.801c0-2.196-1.676-3.872-5.398-3.611l-3.574,0.261c-1.154,0.298-2.979,1.563-2.979,3.574
		c0,0.931,0.707,2.048,1.451,2.568c1.229,0.856,2.57,1.043,5.213,1.043C380.509,36.636,384.604,35.668,384.419,32.801z
		 M380.956,16.94c0-1.639-0.334-2.606-1.006-3.351c-0.482-0.484-1.229-0.819-1.787-0.819c-0.855,0-1.75,0.148-2.643,1.042
		c-1.191,1.267-1.34,2.979-1.34,4.394c0,1.266,0.408,2.42,1.191,3.239c0.67,0.633,1.34,0.931,2.232,0.931
		C380.138,22.376,380.956,19.286,380.956,16.94z"/>
	<path fill="#FFFFFF" d="M387.907,35.929c0-0.782,0.818-1.452,1.713-1.452c0.707,0,1.377,0.335,1.711,0.409
		c0.262,0.037,0.559,0,0.783-0.224c0.559-0.67,2.457-4.914,2.979-6.366c-0.188-0.931-4.133-12.547-4.432-13.329
		c-0.445-0.931-0.781-1.563-1.75-1.563h-0.967c-0.262,0-0.299-0.111-0.299-0.335v-0.745c0-0.148,0.037-0.26,0.299-0.26
		c0.334,0,1.229,0.111,3.424,0.111c1.9,0,3.055-0.111,3.463-0.111c0.299,0,0.336,0.111,0.336,0.26v0.782
		c0,0.187-0.037,0.298-0.225,0.298h-0.707c-0.408,0-0.559,0.261-0.484,0.819c0.113,0.819,2.645,9.01,3.055,9.829h0.148
		c0.371-0.596,3.611-8.303,3.834-9.233c0.225-0.931-0.074-1.415-0.633-1.415h-0.596c-0.223,0-0.26-0.111-0.26-0.298V12.36
		c0-0.186,0.037-0.297,0.223-0.297c0.484,0,1.266,0.111,3.053,0.111c1.006,0,1.861-0.111,2.271-0.111
		c0.223,0,0.223,0.148,0.223,0.297v0.708c0,0.224,0,0.335-0.186,0.335h-0.596c-0.41,0-0.93,0.187-1.303,0.67
		c-0.818,1.006-3.277,6.665-5.846,12.51c-1.824,4.133-3.275,7.596-3.945,8.824c-0.521,0.968-1.191,2.42-3.166,2.42
		C388.614,37.827,387.907,37.045,387.907,35.929z"/>
	<path fill="#FFFFFF" d="M414.858,26.322c-0.447-0.335-0.672-0.446-0.857-0.446c-0.223,0-0.373,0.261-0.596,0.633
		c-0.223,0.409-0.41,0.447-0.67,0.447c-0.223,0-0.41-0.187-0.336-0.596c0.15-0.932,0.521-5.66,0.633-6.739
		c0.039-0.224,0.113-0.224,0.262-0.224l0.559,0.037c0.148,0,0.223,0.074,0.223,0.298c0.037,1.191,0.111,2.42,1.34,4.319
		c1.117,1.75,3.166,2.755,5.213,2.755c2.234,0,5.064-1.378,5.064-4.729c0-3.835-2.756-5.249-5.734-6.292
		c-1.154-0.409-3.834-1.34-5.436-3.016c-1.229-1.229-1.861-2.979-1.861-5.436c0-1.862,1.154-3.687,2.309-4.766
		c1.34-1.267,3.201-1.787,5.211-1.787c2.123,0,3.762,0.633,4.395,0.931c0.334,0.186,0.521,0.148,0.707-0.037l0.484-0.447
		c0.186-0.148,0.297-0.224,0.484-0.224c0.186,0,0.297,0.298,0.297,0.633c0,1.304,0.484,5.102,0.521,5.92
		c0,0.187-0.037,0.261-0.186,0.298l-0.447,0.112c-0.111,0.037-0.186,0-0.223-0.112c-0.299-1.079-0.783-2.531-2.309-4.132
		c-1.006-1.08-2.309-1.602-4.059-1.602c-3.314,0-4.506,2.457-4.506,4.356c0,1.042,0.225,2.271,1.154,3.239
		c1.08,1.079,3.166,1.898,4.244,2.233c2.57,0.819,4.654,1.452,5.994,3.091c0.969,1.153,1.639,2.605,1.639,5.062
		c0,4.394-2.68,8.154-7.596,8.154C418.171,28.259,416.347,27.477,414.858,26.322z"/>
	<path fill="#FFFFFF" d="M433.513,17.797c-0.074,0.335-0.111,0.931-0.111,1.787c0,3.648,2.309,6.403,5.287,6.403
		c2.271,0,3.873-1.303,4.506-2.531c0.074-0.149,0.223-0.224,0.334-0.187l0.484,0.261c0.111,0.037,0.186,0.148,0,0.559
		c-0.67,1.489-2.605,4.059-5.92,4.059c-2.121,0-4.467-0.634-5.846-2.644c-1.303-1.899-1.637-3.276-1.637-5.883
		c0-1.452,0.371-3.946,2.344-5.92c1.602-1.638,3.463-1.974,5.324-1.974c4.283,0,5.475,4.021,5.475,5.474
		c0,0.521-0.447,0.596-1.043,0.596H433.513z M439.433,16.68c0.709,0,1.006-0.187,1.006-0.521c0-0.856-0.447-3.313-2.867-3.313
		c-1.639,0-3.201,1.08-3.908,3.835H439.433z"/>
	<path fill="#FFFFFF" d="M447.108,17.797c0-1.899-0.299-2.271-1.34-2.83l-0.709-0.372c-0.223-0.074-0.297-0.111-0.297-0.261V14.11
		c0-0.148,0.074-0.223,0.297-0.335l3.688-1.898c0.223-0.112,0.371-0.149,0.52-0.149c0.225,0,0.262,0.224,0.262,0.447l0.186,2.568
		h0.148c1.117-1.712,2.867-3.238,4.469-3.238c1.266,0,1.898,0.781,1.898,1.638c0,1.08-0.893,1.824-1.564,1.824
		c-0.408,0-0.781-0.148-1.078-0.298c-0.299-0.186-0.746-0.298-1.229-0.298c-0.596,0-1.564,0.372-2.197,1.563
		c-0.223,0.41-0.373,1.08-0.373,1.191v7.819c0,1.154,0.262,1.526,1.043,1.526h1.75c0.223,0,0.26,0.111,0.26,0.335v0.67
		c0,0.224-0.037,0.335-0.186,0.335c-0.223,0-1.936-0.111-3.947-0.111c-2.307,0-3.871,0.111-4.094,0.111
		c-0.15,0-0.225-0.074-0.225-0.372v-0.633c0-0.261,0.074-0.335,0.41-0.335h1.451c0.559,0,0.82-0.224,0.82-0.707
		c0.037-1.229,0.037-2.532,0.037-4.469V17.797z"/>
	<path fill="#FFFFFF" d="M464.987,24.274h0.111c0.596-1.451,3.203-7.818,3.574-9.271c0.262-1.005,0-1.601-0.67-1.601h-0.744
		c-0.111,0-0.148-0.187-0.148-0.372V12.36c0-0.223,0.074-0.297,0.223-0.297c0.521,0,1.34,0.111,2.979,0.111
		c1.453,0,2.346-0.111,2.682-0.111c0.297,0,0.334,0.037,0.334,0.335v0.633c0,0.261,0,0.372-0.186,0.372h-0.707
		c-0.447,0-0.82,0.074-1.154,0.409c-0.559,0.521-2.42,4.58-2.979,5.957c-0.447,1.117-3.203,7.372-3.352,7.633
		c-0.297,0.521-0.484,0.856-0.893,0.856c-0.373,0-0.596-0.335-0.783-0.782c-0.074-0.186-2.791-7.26-2.904-7.558
		c-0.111-0.298-1.637-4.542-1.898-5.138c-0.484-1.08-0.855-1.378-1.525-1.378H456.2c-0.186,0-0.223-0.148-0.223-0.372V12.36
		c0-0.26,0.074-0.297,0.41-0.297c0.408,0,1.041,0.111,3.127,0.111c1.973,0,2.941-0.111,3.352-0.111c0.297,0,0.371,0.074,0.371,0.297
		v0.671c0,0.224-0.037,0.372-0.26,0.372h-0.744c-0.373,0-0.672,0.224-0.672,0.707c0,0.671,0.969,3.761,1.191,4.394
		C462.978,19.212,464.577,23.493,464.987,24.274z"/>
	<path fill="#FFFFFF" d="M475.956,16.866c0-1.267-0.223-1.937-2.084-2.234c-0.262-0.037-0.336-0.111-0.336-0.261v-0.335
		c0-0.111,0.074-0.186,0.26-0.261c1.191-0.446,2.607-1.042,4.021-1.824c0.299-0.148,0.484-0.224,0.707-0.224
		c0.188,0,0.225,0.187,0.188,0.447c-0.074,0.633-0.074,2.979-0.074,6.068v4.059c0,1.452,0,2.792,0.037,3.202
		c0.074,0.707,0.186,0.968,0.596,0.968h1.713c0.297,0,0.371,0.111,0.371,0.335v0.633c0,0.261-0.074,0.372-0.334,0.372
		c-0.299,0-2.012-0.111-3.574-0.111c-2.16,0-3.611,0.111-4.021,0.111c-0.186,0-0.299-0.074-0.299-0.298V26.77
		c0-0.224,0.113-0.298,0.373-0.298h1.824c0.41,0,0.559-0.149,0.596-0.745c0.037-1.116,0.037-2.271,0.037-3.388V16.866z
		 M474.28,5.511c0-0.932,0.783-1.937,2.271-1.937c1.303,0,1.936,1.005,1.936,1.824c0,0.968-0.67,2.048-2.158,2.048
		C475.509,7.446,474.28,6.702,474.28,5.511z"/>
	<path fill="#FFFFFF" d="M484.173,18.69c0,2.01,0.893,4.281,1.898,5.659c1.229,1.601,2.791,1.898,4.059,1.898
		c1.861,0,2.828-0.409,4.094-1.601c0.076-0.074,0.188-0.112,0.299,0l0.373,0.372c0.148,0.149,0.186,0.261,0,0.484
		c-1.08,1.229-3.463,2.644-5.994,2.644c-1.975,0-4.059-0.447-5.771-2.606c-1.377-1.824-1.676-3.389-1.676-5.063
		c0-4.356,3.053-8.75,7.967-8.75c3.873,0,5.064,2.234,5.064,3.016c-0.037,0.856-0.596,1.304-1.377,1.304
		c-0.857,0-1.49-0.484-2.049-1.489c-0.818-1.526-1.602-1.639-2.494-1.639C486.442,12.919,484.173,14.855,484.173,18.69z"/>
	<path fill="#FFFFFF" d="M498.187,17.797c-0.074,0.335-0.111,0.931-0.111,1.787c0,3.648,2.309,6.403,5.287,6.403
		c2.27,0,3.871-1.303,4.504-2.531c0.074-0.149,0.225-0.224,0.336-0.187l0.484,0.261c0.111,0.037,0.186,0.148,0,0.559
		c-0.672,1.489-2.607,4.059-5.92,4.059c-2.123,0-4.469-0.634-5.846-2.644c-1.303-1.899-1.639-3.276-1.639-5.883
		c0-1.452,0.373-3.946,2.346-5.92c1.602-1.638,3.463-1.974,5.324-1.974c4.281,0,5.473,4.021,5.473,5.474
		c0,0.521-0.447,0.596-1.043,0.596H498.187z M504.106,16.68c0.707,0,1.006-0.187,1.006-0.521c0-0.856-0.447-3.313-2.867-3.313
		c-1.639,0-3.203,1.08-3.91,3.835H504.106z"/>
	<path fill="#FFFFFF" d="M510.954,27.067c-0.188-0.111-0.188-0.335-0.225-0.521l-0.633-3.537c-0.037-0.186,0.074-0.261,0.225-0.298
		l0.484-0.111c0.148-0.037,0.26,0.037,0.334,0.224l0.932,1.824c0.744,1.377,1.266,2.309,3.238,2.309
		c1.303,0,2.941-0.782,2.941-2.532c0-1.676-0.818-2.644-3.611-3.425c-2.197-0.634-4.393-1.787-4.393-4.729
		c0-2.569,2.42-4.543,5.211-4.543c1.787,0,2.756,0.447,3.426,0.782c0.559,0.261,0.633,0.446,0.67,0.67l0.559,2.606
		c0,0.148-0.074,0.261-0.26,0.335l-0.447,0.149c-0.148,0.037-0.223,0-0.336-0.187l-1.266-1.713
		c-0.445-0.707-1.154-1.452-2.605-1.452c-1.414,0-2.867,0.856-2.867,2.458c0,2.159,1.75,2.568,3.574,3.09
		c2.719,0.782,4.432,1.898,4.469,4.766c-0.037,3.016-2.496,4.915-5.66,4.915C512.89,28.147,511.401,27.402,510.954,27.067z"/>
</g>
</svg>
