<?xml version="1.0" encoding="utf-8"?>
<!-- Generator: Adobe Illustrator 16.0.0, SVG Export Plug-In . SVG Version: 6.00 Build 0)  -->
<!DOCTYPE svg PUBLIC "-//W3C//DTD SVG 1.1//EN" "http://www.w3.org/Graphics/SVG/1.1/DTD/svg11.dtd">
<svg version="1.1" id="Layer_1" xmlns="http://www.w3.org/2000/svg" xmlns:xlink="http://www.w3.org/1999/xlink" x="0px" y="0px"
	 width="66.686px" height="61.893px" viewBox="0 0 66.686 61.893" enable-background="new 0 0 66.686 61.893" xml:space="preserve">
<g>
	<path d="M65.981,0H22.276c-0.39,0-0.706,0.316-0.706,0.706V8.6c0,0.39,0.314,0.705,0.706,0.705H57.38v43.282H22.276
		c-0.39,0-0.706,0.315-0.706,0.704v7.896c0,0.389,0.314,0.705,0.706,0.705H65.98c0.389,0,0.705-0.316,0.705-0.705V0.705
		C66.686,0.315,66.37,0,65.981,0z"/>
	<path d="M27.21,46.607c0,0.262,0.145,0.5,0.374,0.623c0.104,0.055,0.217,0.083,0.331,0.083c0.139,0,0.275-0.042,0.394-0.121
		l23.291-15.661c0.194-0.131,0.312-0.351,0.312-0.584c0-0.236-0.117-0.455-0.312-0.586L28.308,14.699
		c-0.217-0.145-0.495-0.16-0.725-0.037s-0.374,0.361-0.374,0.622v9.262H0.705C0.315,24.546,0,24.862,0,25.251v11.391
		c0,0.389,0.315,0.703,0.705,0.703h26.504L27.21,46.607L27.21,46.607z"/>
</g>
</svg>
