<?xml version="1.0" encoding="utf-8"?>
<!-- Generator: Adobe Illustrator 16.0.0, SVG Export Plug-In . SVG Version: 6.00 Build 0)  -->
<!DOCTYPE svg PUBLIC "-//W3C//DTD SVG 1.1//EN" "http://www.w3.org/Graphics/SVG/1.1/DTD/svg11.dtd">
<svg version="1.1" id="Layer_1" xmlns="http://www.w3.org/2000/svg" xmlns:xlink="http://www.w3.org/1999/xlink" x="0px" y="0px"
	 width="388.02px" height="36.902px" viewBox="0 0 388.02 36.902" enable-background="new 0 0 388.02 36.902" xml:space="preserve">
<g>
	<path fill="#FFFFFF" d="M5.351,14.401c0-1.85-0.1-7.95-0.15-8.851c-0.149-2.9-0.949-3-3.25-3H0.4c-0.3,0-0.4-0.1-0.4-0.35V0.95
		C0,0.7,0.101,0.6,0.4,0.6c0.8,0,3.05,0.15,6.65,0.15c1.6,0,4.601-0.15,6.351-0.15c3.9,0,7.101,0.35,8.851,1.35
		c2.85,1.55,3.85,3.85,3.85,6.8c0,4.951-2.2,6.201-6.1,8.25l0.149,0.1c4.851,1.6,8.101,4.601,8.101,9.901
		c0,2.55-1.55,6.05-3.851,7.5c-2.1,1.3-4.95,1.8-9.55,1.8c-3.45,0-5.4-0.15-7.501-0.15c-2.5,0-5.45,0.15-6.4,0.15
		c-0.6,0-0.7-0.101-0.7-0.3v-1.3c0-0.25,0.101-0.35,0.45-0.35h2.4c1.55,0,1.8-0.6,2-2.2c0.15-1.15,0.25-7.75,0.25-11.851V14.401z
		 M9.751,16.351c0.95,0.1,1.8,0.1,2.65,0.1c2.85,0,5.1-0.45,6.3-1.3c2.051-1.55,2.801-3.8,2.801-6c0-1.9-0.601-3.9-2.45-5.25
		c-1.801-1.25-4.301-1.7-6.851-1.7c-0.7,0-1.25-0.05-1.65,0.05c-0.399,0.1-0.7,0.45-0.7,0.9c-0.05,1-0.1,5.35-0.1,9.5V16.351z
		 M9.751,21.151v6.9c0,4.601,1.1,6.65,5.25,6.65c4.2,0,8.051-2,8.051-7.95c0-4.05-2.05-6.701-5-7.851
		c-2.051-0.8-4.4-0.85-6.701-0.85h-1.6V21.151z"/>
	<path fill="#FFFFFF" d="M39.85,21.251c0,2.6,0,10.15,0.05,11.701c0.051,0.85,0.25,1.55,1.301,1.55h2.25c0.45,0,0.55,0.15,0.55,0.45
		v0.85c0,0.3-0.1,0.5-0.3,0.5c-0.351,0-2.551-0.15-5.65-0.15c-3.2,0-5.2,0.15-5.65,0.15c-0.25,0-0.351-0.2-0.351-0.5v-0.85
		c0-0.35,0.101-0.45,0.65-0.45h2.4c0.55,0,1.05-0.35,1.1-1.25c0.05-1.55,0.05-10.15,0.05-13.051v-3.15
		c0-3.55-0.05-8.101-0.149-9.401c-0.101-1.7-0.9-2.5-2.5-3l-1-0.35c-0.25-0.1-0.301-0.15-0.301-0.25v-0.4
		c0-0.15,0.15-0.25,0.45-0.35c1.75-0.8,4.001-1.7,5.851-2.9c0.45-0.3,0.75-0.4,1.05-0.4C40,0,40.1,0.25,40.05,0.9
		c-0.05,2.75-0.2,13.15-0.2,15.901V21.251z"/>
	<path fill="#FFFFFF" d="M61.05,30.202c0,2.85,0.601,3.75,1.5,3.75c0.801,0,1.5-0.4,1.75-0.75c0.2-0.25,0.301-0.35,0.5-0.2
		l0.501,0.4c0.149,0.15,0.25,0.4-0.051,0.9c-0.399,0.75-1.35,2.45-3.9,2.45c-1.8,0-3.1-1.3-3.55-3.35h-0.1
		c-1.051,1.25-2.7,2.3-4.95,3.05c-0.95,0.3-1.851,0.3-2.95,0.3c-1.2,0-3.001-1-3.001-4.15c0-2.3,1.051-4.3,5.001-6.05
		c2.25-1,4.85-2.2,5.65-2.9v-3.2c-0.101-0.85-0.15-2.15-0.7-2.8c-0.55-0.65-1.551-1.1-3-1.1c-1,0-2.551,0.4-3.251,1.05
		c-0.699,0.65-0.25,1.4-0.25,2.3c0,1.75-0.6,2.85-2.649,2.85c-0.801,0-1.2-0.45-1.2-1.6c0-1.6,1.399-3.5,3.45-4.7
		c2.1-1.25,3.85-1.75,6.101-1.75c2.35,0,3.3,0.7,4,1.35c1.05,1.05,1.1,2.2,1.1,3.55v7.65V30.202z M57.399,25.152
		c-1.8,1.35-6.7,2.35-6.7,6.5c0,1.85,1.101,2.75,2.601,2.75c1.45,0,4.1-1.75,4.1-3.1V25.152z"/>
	<path fill="#FFFFFF" d="M70.85,24.052c0,2.7,1.2,5.75,2.551,7.6c1.649,2.15,3.75,2.55,5.45,2.55c2.5,0,3.8-0.55,5.5-2.15
		c0.101-0.1,0.25-0.15,0.4,0l0.5,0.5c0.2,0.2,0.25,0.35,0,0.65c-1.45,1.65-4.65,3.55-8.051,3.55c-2.65,0-5.45-0.6-7.75-3.5
		c-1.851-2.45-2.25-4.55-2.25-6.8c0-5.85,4.1-11.75,10.7-11.75c5.2,0,6.801,3,6.801,4.05c-0.051,1.15-0.801,1.75-1.851,1.75
		c-1.15,0-2-0.65-2.75-2c-1.101-2.05-2.15-2.2-3.351-2.2C73.9,16.301,70.85,18.901,70.85,24.052z"/>
	<path fill="#FFFFFF" d="M91.148,7.451c0-2.05-0.149-2.9-2.6-3.55c-0.55-0.15-0.7-0.2-0.7-0.35V3.1c0-0.2,0.15-0.3,0.65-0.5l5.1-2.2
		c0.45-0.2,0.801-0.4,1.101-0.4s0.35,0.25,0.3,0.85c-0.25,2.4-0.25,9.75-0.25,15.751v7.9c0.65,0,1.9-0.15,2.4-0.55
		c0.95-0.65,4.9-5,5.3-5.601c0.3-0.55,0.3-0.95,0-1.15c-0.399-0.3-1-0.3-1.3-0.3c-0.35,0-0.4-0.15-0.4-0.45v-0.95
		c0-0.25,0.101-0.4,0.351-0.4c0.3,0,2.1,0.15,4.65,0.15c2.45,0,3.7-0.15,4.05-0.15c0.2,0,0.3,0.15,0.3,0.5v0.9
		c0,0.3-0.05,0.4-0.399,0.4h-0.351c-1,0-2.45,0.5-3.45,1.15c-0.7,0.4-4.9,4.3-6.601,5.95c1,1,9.401,9.401,10.251,9.801
		c0.9,0.45,2.05,0.7,2.601,0.7c0.3,0,0.399,0.1,0.399,0.45v0.9c0,0.3-0.1,0.45-0.45,0.45c-0.399,0-1.8-0.15-4.149-0.15
		c-2.95,0-5.051,0.15-5.451,0.15c-0.25,0-0.35-0.15-0.35-0.5v-0.8c0-0.25,0.1-0.4,0.5-0.4h0.35c0.4,0,0.7-0.35,0.551-0.8
		c-0.15-0.4-5.851-6.451-6.65-7.201c-0.551-0.45-1.5-0.55-2.15-0.55v2.2c0,1.75,0,3.45,0.05,5.2c0.05,0.7,0.3,1.05,1,1.05h1.45
		c0.35,0,0.45,0.1,0.45,0.4v0.85c0,0.4-0.101,0.55-0.4,0.55s-1.95-0.15-4.45-0.15c-2.7,0-4.45,0.15-4.8,0.15
		c-0.15,0-0.25-0.2-0.25-0.5v-0.85c0-0.35,0.149-0.45,0.5-0.45h1.85c0.65,0,0.9-0.55,0.9-1.2c0.05-2.2,0.1-4.9,0.1-9.301V7.451z"/>
	<path fill="#FFFFFF" d="M114.799,9.201c0-3.35-0.551-4.05-2.351-4.65l-0.5-0.15c-0.55-0.15-0.65-0.25-0.65-0.4v-0.4
		c0-0.15,0.101-0.25,0.4-0.4c1.45-0.65,4.05-1.95,5.301-2.75c0.35-0.25,0.75-0.45,1.05-0.45c0.35,0,0.45,0.25,0.399,0.85
		c-0.05,0.4-0.05,6.101-0.05,10.551v5.8c1.601-1.55,4.45-2.5,6.9-2.5c4.4,0,9.15,3.55,9.15,10.701c0,5.85-4.7,11.35-10.4,11.35
		c-2.8,0-4.75-0.6-5.9-1.3l-2,1.101c-0.2,0.149-0.35,0.199-0.65,0.149l-0.6-0.149c-0.2-0.051-0.25-0.15-0.2-0.4
		c0.101-0.7,0.101-4.85,0.101-8.5V9.201z M118.398,25.402c0,4.15,0.15,5.65,0.75,7.25c0.5,1.2,2.601,2.5,4.751,2.5
		c3,0,6.7-2.05,6.7-8.601c0-4.85-2.551-9.451-7.45-9.451c-1.851,0-3.65,0.65-4.751,1.8V25.402z"/>
	<path fill="#FFFFFF" d="M140.898,33.302c-2.3-2.75-2.75-4.601-2.75-8.15c0-2.55,1.351-5.75,4.301-8.051c2.6-2,5.05-2.4,6.7-2.4
		c2.75,0,5.5,1.4,7,2.9c2.25,2.3,3.4,4.9,3.4,8.151c0,5.45-4.9,11-11.051,11C146.099,36.752,142.999,35.802,140.898,33.302z
		 M155.35,25.251c0-5.55-4.05-9.05-6.601-9.05c-1.35,0-2.65,0.3-3.85,1.6c-1.95,2-2.65,4.05-2.65,7.851c0,2.8,0.3,4.7,1.899,7
		c1.15,1.65,2.601,2.6,4.951,2.6C152.899,35.252,155.35,30.602,155.35,25.251z"/>
	<path fill="#FFFFFF" d="M178.098,30.202c0,2.85,0.601,3.75,1.5,3.75c0.801,0,1.5-0.4,1.75-0.75c0.2-0.25,0.301-0.35,0.5-0.2
		l0.501,0.4c0.149,0.15,0.25,0.4-0.051,0.9c-0.399,0.75-1.35,2.45-3.9,2.45c-1.8,0-3.1-1.3-3.55-3.35h-0.1
		c-1.051,1.25-2.7,2.3-4.95,3.05c-0.95,0.3-1.851,0.3-2.95,0.3c-1.2,0-3.001-1-3.001-4.15c0-2.3,1.051-4.3,5.001-6.05
		c2.25-1,4.85-2.2,5.65-2.9v-3.2c-0.101-0.85-0.15-2.15-0.7-2.8c-0.55-0.65-1.551-1.1-3-1.1c-1,0-2.551,0.4-3.251,1.05
		c-0.699,0.65-0.25,1.4-0.25,2.3c0,1.75-0.6,2.85-2.649,2.85c-0.801,0-1.2-0.45-1.2-1.6c0-1.6,1.399-3.5,3.45-4.7
		c2.1-1.25,3.85-1.75,6.101-1.75c2.35,0,3.3,0.7,4,1.35c1.05,1.05,1.1,2.2,1.1,3.55v7.65V30.202z M174.447,25.152
		c-1.8,1.35-6.7,2.35-6.7,6.5c0,1.85,1.101,2.75,2.601,2.75c1.45,0,4.1-1.75,4.1-3.1V25.152z"/>
	<path fill="#FFFFFF" d="M187.497,22.852c0-2.55-0.4-3.05-1.801-3.8l-0.949-0.5c-0.301-0.1-0.4-0.15-0.4-0.35v-0.3
		c0-0.2,0.1-0.3,0.4-0.45l4.95-2.55c0.3-0.15,0.5-0.2,0.699-0.2c0.301,0,0.351,0.3,0.351,0.6l0.25,3.55h0.2
		c1.5-2.3,3.85-4.35,6-4.35c1.7,0,2.55,1.05,2.55,2.2c0,1.45-1.199,2.45-2.1,2.45c-0.55,0-1.05-0.2-1.45-0.4
		c-0.4-0.25-1-0.4-1.65-0.4c-0.8,0-2.1,0.5-2.95,2.1c-0.3,0.55-0.5,1.45-0.5,1.6v10.401c0,1.55,0.351,2.05,1.4,2.05h2.351
		c0.3,0,0.35,0.15,0.35,0.45v0.9c0,0.3-0.05,0.45-0.25,0.45c-0.3,0-2.601-0.15-5.301-0.15c-3.1,0-5.2,0.15-5.5,0.15
		c-0.2,0-0.3-0.101-0.3-0.5v-0.85c0-0.35,0.1-0.45,0.55-0.45h1.95c0.75,0,1.1-0.3,1.1-0.95c0.051-1.65,0.051-3.4,0.051-6V22.852z"/>
	<path fill="#FFFFFF" d="M217.348,5.701c0-1.9-0.351-2.5-3.15-2.95c-0.3-0.05-0.35-0.15-0.35-0.35V1.55c0-0.2,0.1-0.3,0.399-0.35
		c1.95-0.4,4.551-0.85,5.5-1.05c0.45-0.05,0.801-0.15,1.15-0.15c0.25,0,0.3,0.35,0.25,0.9c-0.149,2.5-0.2,9.75-0.2,16.101v11.051
		c0,1.85,0.101,4.05,0.5,4.55c0.45,0.5,1.5,0.8,2.2,0.85s0.9,0.1,1,0.35l0.101,0.4c0.05,0.3-0.05,0.45-0.351,0.55l-5.65,1.9
		c-0.3,0.1-0.55-0.05-0.649-0.4l-0.65-2.2c-1.6,1.6-4.8,2.7-7.351,2.7c-1.649,0-3.55,0.101-5.9-2.3
		c-2.55-2.5-3.149-4.75-3.149-8.101c0-3.1,1.149-6.15,3.5-8.5c1.95-2.1,4.65-3.15,7.45-3.15c2.05,0,3.851,0.3,5.351,0.75V5.701z
		 M217.348,21.551c0-0.7,0-1.65-0.45-2.45c-0.7-1.35-2.3-2.7-5.25-2.7c-1.551,0-3.251,0.45-4.551,1.8c-1.95,2.1-2.3,4.75-2.3,6.65
		c0,5.65,3.9,9.75,6.8,9.75c2.801,0,4.95-1.45,5.451-2.75c0.25-0.75,0.3-1.15,0.3-1.7V21.551z"/>
	<path fill="#FFFFFF" d="M254.747,30.202c0,2.85,0.601,3.75,1.5,3.75c0.801,0,1.5-0.4,1.75-0.75c0.2-0.25,0.301-0.35,0.5-0.2
		l0.501,0.4c0.149,0.15,0.25,0.4-0.051,0.9c-0.399,0.75-1.35,2.45-3.9,2.45c-1.8,0-3.1-1.3-3.55-3.35h-0.1
		c-1.051,1.25-2.7,2.3-4.95,3.05c-0.95,0.3-1.851,0.3-2.95,0.3c-1.2,0-3.001-1-3.001-4.15c0-2.3,1.051-4.3,5.001-6.05
		c2.25-1,4.85-2.2,5.65-2.9v-3.2c-0.101-0.85-0.15-2.15-0.7-2.8c-0.55-0.65-1.551-1.1-3-1.1c-1,0-2.551,0.4-3.251,1.05
		c-0.699,0.65-0.25,1.4-0.25,2.3c0,1.75-0.6,2.85-2.649,2.85c-0.801,0-1.2-0.45-1.2-1.6c0-1.6,1.399-3.5,3.45-4.7
		c2.1-1.25,3.85-1.75,6.101-1.75c2.35,0,3.3,0.7,4,1.35c1.05,1.05,1.1,2.2,1.1,3.55v7.65V30.202z M251.097,25.152
		c-1.8,1.35-6.7,2.35-6.7,6.5c0,1.85,1.101,2.75,2.601,2.75c1.45,0,4.1-1.75,4.1-3.1V25.152z"/>
	<path fill="#FFFFFF" d="M267.745,29.902c0,3.75,1.7,4.4,2.601,4.4c1.15,0,2.6-0.2,3.3-0.65c0.25-0.15,0.45-0.1,0.601,0.1l0.25,0.45
		c0.149,0.2,0.05,0.4-0.101,0.55c-0.5,0.5-2.55,2-5.55,2c-2.45,0-4.851-2.35-4.851-4.25c0-2.05,0.15-6.45,0.15-7.15v-1.1
		c0-0.9,0.05-4.3,0.1-6.4h-3.05c-0.45,0-0.75-0.2-0.75-0.6c0-0.4,0.3-0.55,0.899-0.9c1.2-0.7,5.051-4.55,5.7-6.25
		c0.15-0.4,0.4-0.5,0.7-0.5c0.4,0,0.5,0.35,0.5,0.75l-0.25,4.9h6.951c0.3,0,0.449,0.25,0.35,0.45l-0.5,1.75
		c-0.05,0.25-0.15,0.4-0.45,0.4h-6.45c-0.1,2.3-0.15,4.75-0.15,7.051V29.902z"/>
	<path fill="#FFFFFF" d="M299.695,35.853c-3.4-1.35-5.15-3.55-5.95-6.701c-0.601-2.25-0.801-5.6-0.801-12.151v-11.9
		c0-1.75-0.35-2.55-1.899-2.55h-2.351c-0.3,0-0.35-0.1-0.35-0.45V1c0-0.3,0.05-0.4,0.449-0.4c0.5,0,2.95,0.15,6.851,0.15
		s6.301-0.15,6.851-0.15c0.4,0,0.45,0.1,0.45,0.3v1.3c0,0.25-0.05,0.35-0.4,0.35h-2.5c-1.45,0-2.3,0.95-2.4,2.05
		c-0.05,0.45-0.1,3.95-0.1,6.5v3.3c0,2.65,0.2,9,0.25,10.601c0.05,2.3,0.45,4.65,1.601,6.351c1.85,2.7,5.05,3.6,7.95,3.6
		c2.85,0,5.75-0.95,7.5-2.75c1.95-2.1,2.601-5.101,2.601-8.801V12.701c0-3.8-0.101-6.7-0.25-7.95c-0.15-1.3-0.95-2.2-2.25-2.2h-2.2
		c-0.3,0-0.351-0.15-0.351-0.4v-1.2c0-0.25,0.051-0.35,0.351-0.35c0.5,0,2.8,0.15,6.15,0.15c3.45,0,5.05-0.15,5.5-0.15
		s0.5,0.2,0.5,0.35v1.1c0,0.3-0.05,0.5-0.3,0.5h-2.05c-1.851,0-2.001,1.4-2.15,2c-0.101,0.5-0.101,7.601-0.101,8.301
		c0,0.7-0.1,9.45-0.25,11.4c-0.3,4.101-1.399,7.25-4.2,9.651c-2,1.85-5.05,3-9.4,3C303.846,36.902,301.345,36.553,299.695,35.853z"
		/>
	<path fill="#FFFFFF" d="M331.895,34.302c-0.6-0.45-0.9-0.6-1.15-0.6c-0.3,0-0.5,0.35-0.8,0.85c-0.3,0.55-0.55,0.6-0.9,0.6
		c-0.3,0-0.55-0.25-0.449-0.8c0.199-1.25,0.699-7.6,0.85-9.05c0.05-0.3,0.15-0.3,0.35-0.3l0.751,0.05c0.199,0,0.3,0.1,0.3,0.4
		c0.05,1.6,0.149,3.25,1.8,5.8c1.5,2.35,4.25,3.7,7.001,3.7c3,0,6.8-1.85,6.8-6.35c0-5.15-3.7-7.051-7.7-8.451
		c-1.55-0.55-5.15-1.8-7.301-4.05c-1.65-1.65-2.5-4-2.5-7.3c0-2.5,1.55-4.95,3.101-6.4c1.8-1.7,4.3-2.4,7-2.4
		c2.851,0,5.051,0.85,5.9,1.25c0.45,0.25,0.7,0.2,0.95-0.05l0.65-0.6c0.25-0.2,0.399-0.3,0.649-0.3s0.4,0.4,0.4,0.85
		c0,1.75,0.649,6.85,0.7,7.95c0,0.25-0.051,0.35-0.25,0.4l-0.601,0.15c-0.149,0.05-0.25,0-0.3-0.15c-0.4-1.45-1.05-3.4-3.101-5.55
		c-1.35-1.45-3.1-2.15-5.45-2.15c-4.45,0-6.05,3.3-6.05,5.85c0,1.4,0.3,3.05,1.55,4.351c1.45,1.45,4.25,2.55,5.7,3
		c3.45,1.1,6.251,1.95,8.051,4.15c1.3,1.55,2.2,3.5,2.2,6.8c0,5.9-3.601,10.951-10.201,10.951
		C336.345,36.902,333.895,35.853,331.895,34.302z"/>
	<path fill="#FFFFFF" d="M360.394,32.302c-3.6-3.4-5.35-9.201-5.35-14.001c0-4.65,1.5-9.451,5.1-13.251
		c2.551-2.7,7.051-5.05,12.501-5.05c4.551,0,8.301,1.7,10.101,2.75c0.65,0.4,0.9,0.35,1,0l0.4-1.45c0.1-0.3,0.2-0.3,0.65-0.3
		c0.449,0,0.55,0.1,0.55,0.8c0,0.95,1,8.3,1.25,9.701c0.05,0.25,0,0.45-0.2,0.5l-0.75,0.2c-0.25,0.05-0.35,0-0.5-0.4
		c-0.7-1.65-1.8-4.05-3.9-6.2c-2.1-2.15-4.75-3.851-8.7-3.851c-8.951,0-12.551,7.951-12.501,15.251c0,2.9,0.9,8.551,4.801,12.851
		c3.399,3.8,6.25,4.2,9.601,4.2c5.65,0,10.05-3.1,12.351-6.351c0.149-0.25,0.25-0.3,0.399-0.15l0.65,0.5c0.15,0.1,0.25,0.2,0.1,0.45
		c-3,4.35-7.85,8.4-14.9,8.4C367.145,36.902,363.395,35.052,360.394,32.302z"/>
</g>
</svg>
